<svg width="100" height="100" viewBox="0 0 100 100" fill="none" xmlns="http://www.w3.org/2000/svg">
<ellipse cx="50" cy="50.2646" rx="50" ry="49.5822" fill="#ECF9EE"/>
<rect x="39.25" y="47.046" width="24" height="28.7493" rx="4.5" fill="#564C10" stroke="black"/>
<path d="M47.5922 32.6761C49.3873 30.1709 53.1127 30.1709 54.9078 32.6761L71.1546 55.3489C73.2883 58.3267 71.16 62.4701 67.4967 62.4701H35.0033C31.34 62.4701 29.2117 58.3267 31.3454 55.3489L47.5922 32.6761Z" fill="#257432" stroke="black"/>
<path d="M47.5123 19.551C49.2948 16.8922 53.2052 16.8922 54.9877 19.551L66.184 36.2511C68.1884 39.2408 66.0457 43.257 62.4462 43.257H40.0538C36.4543 43.257 34.3116 39.2408 36.316 36.2511L47.5123 19.551Z" fill="#257432" stroke="black"/>
</svg>
