<svg width="75" height="18" viewBox="0 0 75 18" fill="none" xmlns="http://www.w3.org/2000/svg">
<path d="M13.056 0.248V2.96H8.592V17H5.232V2.96H0.768V0.248H13.056ZM18.8676 5.768C19.2996 5.064 19.8596 4.512 20.5476 4.112C21.2516 3.712 22.0516 3.512 22.9476 3.512V7.04H22.0596C21.0036 7.04 20.2036 7.288 19.6596 7.784C19.1316 8.28 18.8676 9.144 18.8676 10.376V17H15.5076V3.704H18.8676V5.768ZM37.5707 10.064C37.5707 10.544 37.5387 10.976 37.4747 11.36H27.7547C27.8347 12.32 28.1707 13.072 28.7627 13.616C29.3547 14.16 30.0827 14.432 30.9467 14.432C32.1947 14.432 33.0827 13.896 33.6107 12.824H37.2347C36.8507 14.104 36.1147 15.16 35.0267 15.992C33.9387 16.808 32.6027 17.216 31.0187 17.216C29.7387 17.216 28.5867 16.936 27.5627 16.376C26.5547 15.8 25.7627 14.992 25.1867 13.952C24.6267 12.912 24.3467 11.712 24.3467 10.352C24.3467 8.976 24.6267 7.768 25.1867 6.728C25.7467 5.688 26.5307 4.888 27.5387 4.328C28.5467 3.768 29.7067 3.488 31.0187 3.488C32.2827 3.488 33.4107 3.76 34.4027 4.304C35.4107 4.848 36.1867 5.624 36.7307 6.632C37.2907 7.624 37.5707 8.768 37.5707 10.064ZM34.0907 9.104C34.0747 8.24 33.7627 7.552 33.1547 7.04C32.5467 6.512 31.8027 6.248 30.9227 6.248C30.0907 6.248 29.3867 6.504 28.8107 7.016C28.2507 7.512 27.9067 8.208 27.7787 9.104H34.0907ZM52.3832 10.064C52.3832 10.544 52.3512 10.976 52.2872 11.36H42.5672C42.6472 12.32 42.9832 13.072 43.5752 13.616C44.1672 14.16 44.8952 14.432 45.7592 14.432C47.0072 14.432 47.8952 13.896 48.4232 12.824H52.0472C51.6632 14.104 50.9272 15.16 49.8392 15.992C48.7512 16.808 47.4152 17.216 45.8312 17.216C44.5512 17.216 43.3992 16.936 42.3752 16.376C41.3672 15.8 40.5752 14.992 39.9992 13.952C39.4392 12.912 39.1592 11.712 39.1592 10.352C39.1592 8.976 39.4392 7.768 39.9992 6.728C40.5592 5.688 41.3432 4.888 42.3512 4.328C43.3592 3.768 44.5192 3.488 45.8312 3.488C47.0952 3.488 48.2232 3.76 49.2152 4.304C50.2232 4.848 50.9992 5.624 51.5432 6.632C52.1032 7.624 52.3832 8.768 52.3832 10.064ZM48.9032 9.104C48.8872 8.24 48.5752 7.552 47.9672 7.04C47.3592 6.512 46.6152 6.248 45.7352 6.248C44.9032 6.248 44.1992 6.504 43.6232 7.016C43.0632 7.512 42.7192 8.208 42.5912 9.104H48.9032ZM59.9237 17.216C58.8357 17.216 57.8597 17.024 56.9957 16.64C56.1317 16.24 55.4437 15.704 54.9317 15.032C54.4357 14.36 54.1637 13.616 54.1157 12.8H57.4997C57.5637 13.312 57.8117 13.736 58.2437 14.072C58.6917 14.408 59.2437 14.576 59.8997 14.576C60.5397 14.576 61.0357 14.448 61.3877 14.192C61.7557 13.936 61.9397 13.608 61.9397 13.208C61.9397 12.776 61.7157 12.456 61.2677 12.248C60.8357 12.024 60.1397 11.784 59.1797 11.528C58.1877 11.288 57.3717 11.04 56.7317 10.784C56.1077 10.528 55.5637 10.136 55.0997 9.608C54.6517 9.08 54.4277 8.368 54.4277 7.472C54.4277 6.736 54.6357 6.064 55.0517 5.456C55.4837 4.848 56.0917 4.368 56.8757 4.016C57.6757 3.664 58.6117 3.488 59.6837 3.488C61.2677 3.488 62.5317 3.888 63.4757 4.688C64.4197 5.472 64.9397 6.536 65.0357 7.88H61.8197C61.7717 7.352 61.5477 6.936 61.1477 6.632C60.7637 6.312 60.2437 6.152 59.5877 6.152C58.9797 6.152 58.5077 6.264 58.1717 6.488C57.8517 6.712 57.6917 7.024 57.6917 7.424C57.6917 7.872 57.9157 8.216 58.3637 8.456C58.8117 8.68 59.5077 8.912 60.4517 9.152C61.4117 9.392 62.2037 9.64 62.8277 9.896C63.4517 10.152 63.9877 10.552 64.4357 11.096C64.8997 11.624 65.1397 12.328 65.1557 13.208C65.1557 13.976 64.9397 14.664 64.5077 15.272C64.0917 15.88 63.4837 16.36 62.6837 16.712C61.8997 17.048 60.9797 17.216 59.9237 17.216ZM71.8258 6.464V12.896C71.8258 13.344 71.9298 13.672 72.1378 13.88C72.3618 14.072 72.7298 14.168 73.2418 14.168H74.8018V17H72.6898C69.8578 17 68.4418 15.624 68.4418 12.872V6.464H66.8578V3.704H68.4418V0.415999H71.8258V3.704H74.8018V6.464H71.8258Z" fill="#2F923F"/>
</svg>
